<svg width="23" height="23" viewBox="0 0 23 23" fill="none" xmlns="http://www.w3.org/2000/svg">
<path opacity="0.4" d="M18.8253 9.09308C18.8253 9.15824 18.3145 15.6181 18.0228 18.3368C17.8401 20.0052 16.7645 21.0172 15.1512 21.046C13.9116 21.0737 12.6981 21.0833 11.5042 21.0833C10.2366 21.0833 8.997 21.0737 7.79375 21.046C6.23447 21.0086 5.15797 19.9765 4.98462 18.3368C4.6845 15.6086 4.18307 9.15824 4.17375 9.09308C4.16443 8.89663 4.22781 8.70976 4.35643 8.55835C4.48318 8.41844 4.66586 8.33411 4.85786 8.33411H18.1505C18.3415 8.33411 18.5149 8.41844 18.6519 8.55835C18.7796 8.70976 18.8439 8.89663 18.8253 9.09308Z" fill="#D90000"/>
<path d="M20.125 5.72785C20.125 5.33398 19.8146 5.02541 19.4418 5.02541H16.6476C16.0791 5.02541 15.5851 4.62101 15.4583 4.05082L15.3017 3.35222C15.0827 2.50796 14.3268 1.91669 13.4787 1.91669H9.52223C8.66477 1.91669 7.91635 2.50796 7.68893 3.39822L7.5426 4.05178C7.41492 4.62101 6.92094 5.02541 6.35333 5.02541H3.55911C3.18537 5.02541 2.875 5.33398 2.875 5.72785V6.092C2.875 6.47628 3.18537 6.79443 3.55911 6.79443H19.4418C19.8146 6.79443 20.125 6.47628 20.125 6.092V5.72785Z" fill="#D90000"/>
</svg>
