<svg width="23" height="23" viewBox="0 0 23 23" fill="none" xmlns="http://www.w3.org/2000/svg">
<path opacity="0.4" d="M15.9703 21.0735H7.02958C5.64333 21.1596 4.28197 20.6791 3.2576 19.7428C2.32131 18.7175 1.84072 17.3561 1.92688 15.9708V7.02923C1.84072 5.64395 2.32035 4.2826 3.25665 3.25729C4.28197 2.321 5.64333 1.84042 7.02958 1.92658H15.9703C17.3546 1.84042 18.7151 2.32005 19.7394 3.25633C20.6748 4.2826 21.1563 5.64299 21.074 7.02923V15.9708C21.1592 17.3561 20.6795 18.7175 19.7432 19.7428C18.7179 20.6791 17.3566 21.1596 15.9703 21.0735Z" fill="#3343D0"/>
<path d="M16.3443 9.96435L10.0645 16.2753C9.73794 16.5932 9.30871 16.7709 8.86083 16.7709H6.66805C6.54675 16.7709 6.43477 16.7241 6.3508 16.64C6.26682 16.5558 6.22949 16.4436 6.22949 16.3221L6.28548 14.1062C6.29481 13.6668 6.4721 13.2554 6.78002 12.9469L11.2309 8.48711C11.3055 8.41232 11.4362 8.41232 11.5108 8.48711L13.0719 10.042C13.1745 10.1439 13.3238 10.2102 13.4825 10.2102C13.8277 10.2102 14.0983 9.92976 14.0983 9.59317C14.0983 9.42488 14.033 9.27528 13.9303 9.16309C13.9024 9.12569 12.4159 7.64565 12.4159 7.64565C12.3226 7.55215 12.3226 7.39321 12.4159 7.29972L13.0411 6.66394C13.6196 6.08427 14.5527 6.08427 15.1312 6.66394L16.3443 7.87939C16.9135 8.44972 16.9135 9.38468 16.3443 9.96435Z" fill="#3343D0"/>
</svg>
